<?xml version="1.0" encoding="UTF-8" standalone="no"?>
<!-- Created with Inkscape (http://www.inkscape.org/) -->

<svg
   xmlns:dc="http://purl.org/dc/elements/1.1/"
   xmlns:cc="http://creativecommons.org/ns#"
   xmlns:rdf="http://www.w3.org/1999/02/22-rdf-syntax-ns#"
   xmlns:svg="http://www.w3.org/2000/svg"
   xmlns="http://www.w3.org/2000/svg"
   xmlns:sodipodi="http://sodipodi.sourceforge.net/DTD/sodipodi-0.dtd"
   xmlns:inkscape="http://www.inkscape.org/namespaces/inkscape"
   width="744.09448819"
   height="1052.3622047"
   id="svg2"
   version="1.1"
   inkscape:version="0.48.1 r9760"
   sodipodi:docname="icon.svg">
  <defs
     id="defs4">
    <mask
       maskUnits="userSpaceOnUse"
       id="mask4114">
      <path
         id="path4116"
         d="m 453.3125,232.46875 -5.25,22.125 A 5.5958265,13.751298 0 0 1 447.875,255 l -5.25,22.0625 0,0.0312 0,0.0312 0.0312,0 5.21875,8.71875 A 5.5958265,5.4494953 0 0 1 448.0625,286 l 5.25,8.75 5.09375,-8.75 a 5.5958265,5.4494953 0 0 1 0.1875,-0.15625 l 5.21875,-8.71875 0.0312,-0.0312 0,-0.0312 -5.25,-22.0625 a 5.5958265,13.751298 0 0 1 -0.1875,-0.40625 l -5.09375,-22.125 z"
         style="fill:#ffffff;fill-opacity:1;stroke:none"
         inkscape:connector-curvature="0" />
    </mask>
    <mask
       maskUnits="userSpaceOnUse"
       id="mask4118">
      <path
         id="path4120"
         d="m 453.3125,232.46875 -5.25,22.125 A 5.5958265,13.751298 0 0 1 447.875,255 l -5.25,22.0625 0,0.0312 0,0.0312 0.0312,0 5.21875,8.71875 A 5.5958265,5.4494953 0 0 1 448.0625,286 l 5.25,8.75 5.09375,-8.75 a 5.5958265,5.4494953 0 0 1 0.1875,-0.15625 l 5.21875,-8.71875 0.0312,-0.0312 0,-0.0312 -5.25,-22.0625 a 5.5958265,13.751298 0 0 1 -0.1875,-0.40625 l -5.09375,-22.125 z"
         style="fill:#ffffff;fill-opacity:1;stroke:none"
         inkscape:connector-curvature="0" />
    </mask>
    <mask
       maskUnits="userSpaceOnUse"
       id="mask4122">
      <path
         id="path4124"
         d="m 453.3125,232.46875 -5.25,22.125 A 5.5958265,13.751298 0 0 1 447.875,255 l -5.25,22.0625 0,0.0312 0,0.0312 0.0312,0 5.21875,8.71875 A 5.5958265,5.4494953 0 0 1 448.0625,286 l 5.25,8.75 5.09375,-8.75 a 5.5958265,5.4494953 0 0 1 0.1875,-0.15625 l 5.21875,-8.71875 0.0312,-0.0312 0,-0.0312 -5.25,-22.0625 a 5.5958265,13.751298 0 0 1 -0.1875,-0.40625 l -5.09375,-22.125 z"
         style="fill:#ffffff;fill-opacity:1;stroke:none"
         inkscape:connector-curvature="0" />
    </mask>
    <mask
       maskUnits="userSpaceOnUse"
       id="mask4126">
      <path
         id="path4128"
         d="m 453.3125,232.46875 -5.25,22.125 A 5.5958265,13.751298 0 0 1 447.875,255 l -5.25,22.0625 0,0.0312 0,0.0312 0.0312,0 5.21875,8.71875 A 5.5958265,5.4494953 0 0 1 448.0625,286 l 5.25,8.75 5.09375,-8.75 a 5.5958265,5.4494953 0 0 1 0.1875,-0.15625 l 5.21875,-8.71875 0.0312,-0.0312 0,-0.0312 -5.25,-22.0625 a 5.5958265,13.751298 0 0 1 -0.1875,-0.40625 l -5.09375,-22.125 z"
         style="fill:#ffffff;fill-opacity:1;stroke:none"
         inkscape:connector-curvature="0" />
    </mask>
  </defs>
  <sodipodi:namedview
     id="base"
     pagecolor="#ffffff"
     bordercolor="#666666"
     borderopacity="1.0"
     inkscape:pageopacity="0.0"
     inkscape:pageshadow="2"
     inkscape:zoom="1.4142136"
     inkscape:cx="326.21171"
     inkscape:cy="816.35785"
     inkscape:document-units="px"
     inkscape:current-layer="layer1"
     showgrid="false"
     inkscape:window-width="1366"
     inkscape:window-height="693"
     inkscape:window-x="0"
     inkscape:window-y="25"
     inkscape:window-maximized="1" />
  <metadata
     id="metadata7">
    <rdf:RDF>
      <cc:Work
         rdf:about="">
        <dc:format>image/svg+xml</dc:format>
        <dc:type
           rdf:resource="http://purl.org/dc/dcmitype/StillImage" />
        <dc:title></dc:title>
      </cc:Work>
    </rdf:RDF>
  </metadata>
  <g
     inkscape:label="Layer 1"
     inkscape:groupmode="layer"
     id="layer1">
    <g
       id="g4389"
       inkscape:export-filename="/home/madbob/projects/BusinessMap/images/logo.png"
       inkscape:export-xdpi="90"
       inkscape:export-ydpi="90">
      <path
         sodipodi:type="arc"
         style="fill:#000000;fill-opacity:1;stroke:#000000;stroke-width:2;stroke-linecap:round;stroke-linejoin:round;stroke-miterlimit:4;stroke-opacity:1;stroke-dasharray:none"
         id="path2997"
         sodipodi:cx="230.60519"
         sodipodi:cy="290.0127"
         sodipodi:rx="5.4800777"
         sodipodi:ry="5.4800777"
         d="m 236.08527,290.0127 a 5.4800777,5.4800777 0 1 1 -10.96015,0 5.4800777,5.4800777 0 1 1 10.96015,0 z"
         transform="matrix(7.8173747,-7.6129499,7.8173747,7.6129499,-3616.6301,-253.40451)"
         inkscape:export-filename="/tmp/logo.png"
         inkscape:export-xdpi="90"
         inkscape:export-ydpi="90" />
      <path
         sodipodi:type="star"
         style="fill:#000000;fill-opacity:1;stroke:#000000;stroke-width:2;stroke-linecap:round;stroke-linejoin:round;stroke-miterlimit:4;stroke-opacity:1;stroke-dasharray:none"
         id="path2999"
         sodipodi:sides="3"
         sodipodi:cx="218.67278"
         sodipodi:cy="296.73019"
         sodipodi:r1="5.0412364"
         sodipodi:r2="2.520618"
         sodipodi:arg1="1.5707963"
         sodipodi:arg2="2.6179939"
         inkscape:flatsided="false"
         inkscape:rounded="0"
         inkscape:randomized="0"
         d="m 218.67278,301.77143 -2.18292,-3.78093 -2.18292,-3.78092 4.36584,0 4.36583,0 -2.18292,3.78092 z"
         inkscape:transform-center-y="6.6703631"
         transform="matrix(5.4347234,0,0,5.292605,-735.19086,-1303.5626)"
         inkscape:export-filename="/tmp/logo.png"
         inkscape:export-xdpi="90"
         inkscape:export-ydpi="90" />
      <path
         id="path4143"
         d="M 453.25 261.875 C 447.32021 261.875 441.70488 263.27946 436.75 265.78125 L 441.375 273.59375 L 453.25 293.59375 L 465.09375 273.59375 L 469.71875 265.78125 C 464.76387 263.27946 459.17979 261.875 453.25 261.875 z "
         style="fill:#ffffff;fill-opacity:1;stroke:none;stroke-width:5;stroke-linejoin:round;stroke-miterlimit:4;stroke-opacity:1;stroke-dasharray:none" />
      <path
         id="path4095"
         d="M 453.3125 232.46875 L 448.0625 254.59375 A 5.5958265 13.751298 0 0 1 447.875 255 L 442.625 277.0625 L 442.625 277.09375 L 442.625 277.125 L 442.65625 277.125 L 447.875 285.84375 A 5.5958265 5.4494953 0 0 1 448.0625 286 L 453.3125 294.75 L 458.40625 286 A 5.5958265 5.4494953 0 0 1 458.59375 285.84375 L 463.8125 277.125 L 463.84375 277.09375 L 463.84375 277.0625 L 458.59375 255 A 5.5958265 13.751298 0 0 1 458.40625 254.59375 L 453.3125 232.46875 z "
         style="fill:#ff0000;fill-opacity:1;stroke:none" />
      <g
         transform="matrix(1.0110023,0,0,1.0110023,-4.9866656,-1.6876357)"
         id="g3961">
        <path
           sodipodi:type="star"
           style="fill:#ffa200;fill-opacity:1;stroke:#000000;stroke-width:2;stroke-linecap:round;stroke-linejoin:round;stroke-miterlimit:4;stroke-opacity:1;stroke-dasharray:none"
           id="path3001"
           sodipodi:sides="3"
           sodipodi:cx="217.68787"
           sodipodi:cy="222.01678"
           sodipodi:r1="17.180019"
           sodipodi:r2="8.5900087"
           sodipodi:arg1="1.5707963"
           sodipodi:arg2="2.6179939"
           inkscape:flatsided="false"
           inkscape:rounded="0"
           inkscape:randomized="0"
           d="m 217.68787,239.1968 -7.43917,-12.88501 -7.43917,-12.88501 14.87834,0 14.87833,-1e-5 -7.43917,12.88502 z"
           inkscape:transform-center-y="8.5569324"
           transform="matrix(2.0282659,0,0,1.9922881,11.706202,-220.89543)"
           inkscape:export-filename="/tmp/logo.png"
           inkscape:export-xdpi="90"
           inkscape:export-ydpi="90" />
        <g
           id="g3003"
           transform="matrix(1.5187964,0,0,1.4918557,104.0126,-103.64668)"
           inkscape:export-filename="/tmp/logo.png"
           inkscape:export-xdpi="90"
           inkscape:export-ydpi="90">
          <path
             transform="matrix(1.0431771,0,0,1.0431771,11.733742,-15.81225)"
             sodipodi:type="arc"
             style="fill:#ffffff;fill-opacity:1;stroke:#000000;stroke-width:2.56033802;stroke-linecap:round;stroke-linejoin:round;stroke-miterlimit:4;stroke-opacity:1;stroke-dasharray:none"
             id="path3005"
             sodipodi:cx="224.50641"
             sodipodi:cy="197.01552"
             sodipodi:rx="15.404826"
             sodipodi:ry="15.404826"
             d="m 239.91123,197.01552 c 0,8.50785 -6.89697,15.40482 -15.40482,15.40482 -8.50785,0 -15.40483,-6.89697 -15.40483,-15.40482 0,-8.50785 6.89698,-15.40483 15.40483,-15.40483 8.50785,0 15.40482,6.89698 15.40482,15.40483 z" />
          <path
             transform="matrix(1.3354429,0,0,1.3354429,-66.581532,-72.718648)"
             sodipodi:type="arc"
             style="fill:#000000;fill-opacity:1;stroke:#000000;stroke-width:2;stroke-linecap:round;stroke-linejoin:round;stroke-miterlimit:4;stroke-opacity:1;stroke-dasharray:none"
             id="path3007"
             sodipodi:cx="228.04193"
             sodipodi:cy="196.51044"
             sodipodi:rx="2.7779195"
             sodipodi:ry="2.7779195"
             d="m 230.81985,196.51044 c 0,1.5342 -1.24372,2.77792 -2.77792,2.77792 -1.5342,0 -2.77792,-1.24372 -2.77792,-2.77792 0,-1.53421 1.24372,-2.77792 2.77792,-2.77792 1.5342,0 2.77792,1.24371 2.77792,2.77792 z" />
          <path
             d="m 239.91123,197.01552 c 0,8.50785 -6.89697,15.40482 -15.40482,15.40482 -8.50785,0 -15.40483,-6.89697 -15.40483,-15.40482 0,-8.50785 6.89698,-15.40483 15.40483,-15.40483 8.50785,0 15.40482,6.89698 15.40482,15.40483 z"
             sodipodi:ry="15.404826"
             sodipodi:rx="15.404826"
             sodipodi:cy="197.01552"
             sodipodi:cx="224.50641"
             id="path3009"
             style="fill:#ffffff;fill-opacity:1;stroke:#000000;stroke-width:2.56033802;stroke-linecap:round;stroke-linejoin:round;stroke-miterlimit:4;stroke-opacity:1;stroke-dasharray:none"
             sodipodi:type="arc"
             transform="matrix(-1.0431771,0,0,1.0431771,448.13363,-15.81225)" />
          <path
             d="m 230.81985,196.51044 c 0,1.5342 -1.24372,2.77792 -2.77792,2.77792 -1.5342,0 -2.77792,-1.24372 -2.77792,-2.77792 0,-1.53421 1.24372,-2.77792 2.77792,-2.77792 1.5342,0 2.77792,1.24371 2.77792,2.77792 z"
             sodipodi:ry="2.7779195"
             sodipodi:rx="2.7779195"
             sodipodi:cy="196.51044"
             sodipodi:cx="228.04193"
             id="path3011"
             style="fill:#000000;fill-opacity:1;stroke:#000000;stroke-width:2;stroke-linecap:round;stroke-linejoin:round;stroke-miterlimit:4;stroke-opacity:1;stroke-dasharray:none"
             sodipodi:type="arc"
             transform="matrix(-1.3354429,0,0,1.3354429,526.4489,-72.718648)" />
        </g>
      </g>
    </g>
    <rect
       style="fill:#ffffff;fill-opacity:1;stroke:none"
       id="rect4374"
       width="16"
       height="16"
       x="365.74988"
       y="336.70795"
       inkscape:export-filename="/home/madbob/projects/BusinessMap/favicon.ico.png"
       inkscape:export-xdpi="90"
       inkscape:export-ydpi="90" />
    <g
       id="g4376"
       transform="matrix(0.97500044,0,0,0.97500044,72.992388,-133.97589)"
       inkscape:export-filename="/home/madbob/projects/BusinessMap/favicon.ico.png"
       inkscape:export-xdpi="90"
       inkscape:export-ydpi="90">
      <path
         inkscape:export-ydpi="90"
         inkscape:export-xdpi="90"
         inkscape:export-filename="/tmp/logo.png"
         transform="matrix(0.73572674,-0.71648744,0.73572674,0.71648744,-74.563407,446.97241)"
         d="m 236.08527,290.0127 c 0,3.02656 -2.45351,5.48007 -5.48008,5.48007 -3.02656,0 -5.48007,-2.45351 -5.48007,-5.48007 0,-3.02657 2.45351,-5.48008 5.48007,-5.48008 3.02657,0 5.48008,2.45351 5.48008,5.48008 z"
         sodipodi:ry="5.4800777"
         sodipodi:rx="5.4800777"
         sodipodi:cy="290.0127"
         sodipodi:cx="230.60519"
         id="path4352"
         style="fill:#000000;fill-opacity:1;stroke:#000000;stroke-width:2;stroke-linecap:round;stroke-linejoin:round;stroke-miterlimit:4;stroke-opacity:1;stroke-dasharray:none"
         sodipodi:type="arc" />
      <path
         inkscape:export-ydpi="90"
         inkscape:export-xdpi="90"
         inkscape:export-filename="/tmp/logo.png"
         transform="matrix(0.51148518,0,0,0.49810981,196.62123,348.13751)"
         inkscape:transform-center-y="0.62777428"
         d="m 218.67278,301.77143 -2.18292,-3.78093 -2.18292,-3.78092 4.36584,0 4.36583,0 -2.18292,3.78092 z"
         inkscape:randomized="0"
         inkscape:rounded="0"
         inkscape:flatsided="false"
         sodipodi:arg2="2.6179939"
         sodipodi:arg1="1.5707963"
         sodipodi:r2="2.520618"
         sodipodi:r1="5.0412364"
         sodipodi:cy="296.73019"
         sodipodi:cx="218.67278"
         sodipodi:sides="3"
         id="path4354"
         style="fill:#000000;fill-opacity:1;stroke:#000000;stroke-width:2;stroke-linecap:round;stroke-linejoin:round;stroke-miterlimit:4;stroke-opacity:1;stroke-dasharray:none"
         sodipodi:type="star" />
      <path
         inkscape:connector-curvature="0"
         style="fill:#ffffff;fill-opacity:1;stroke:none"
         d="m 308.4705,495.46757 c -0.55807,0 -1.08656,0.13218 -1.55288,0.36764 l 0.43528,0.73527 1.1176,1.88228 1.11467,-1.88228 0.43528,-0.73527 c -0.46633,-0.23546 -0.99187,-0.36764 -1.54995,-0.36764 z"
         id="path4356" />
      <path
         inkscape:connector-curvature="0"
         style="fill:#ff0000;fill-opacity:1;stroke:none"
         d="m 308.47639,492.70003 -0.4941,2.08228 a 0.52664729,1.2941938 0 0 1 -0.0177,0.0382 l -0.4941,2.0764 0,0.003 0,0.003 0.003,0 0.49116,0.82056 a 0.52664729,0.51287543 0 0 1 0.0177,0.0147 l 0.4941,0.8235 0.47939,-0.8235 a 0.52664729,0.51287543 0 0 1 0.0177,-0.0147 l 0.49116,-0.82056 0.003,-0.003 0,-0.003 -0.4941,-2.0764 a 0.52664729,1.2941938 0 0 1 -0.0176,-0.0382 l -0.4794,-2.08227 z"
         id="path4358" />
      <g
         id="g4360"
         transform="matrix(0.09514977,0,0,0.09514977,265.34388,470.66256)">
        <path
           inkscape:export-ydpi="90"
           inkscape:export-xdpi="90"
           inkscape:export-filename="/tmp/logo.png"
           transform="matrix(2.0282659,0,0,1.9922881,11.706202,-220.89543)"
           inkscape:transform-center-y="8.5569324"
           d="m 217.68787,239.1968 -7.43917,-12.88501 -7.43917,-12.88501 14.87834,0 14.87833,-1e-5 -7.43917,12.88502 z"
           inkscape:randomized="0"
           inkscape:rounded="0"
           inkscape:flatsided="false"
           sodipodi:arg2="2.6179939"
           sodipodi:arg1="1.5707963"
           sodipodi:r2="8.5900087"
           sodipodi:r1="17.180019"
           sodipodi:cy="222.01678"
           sodipodi:cx="217.68787"
           sodipodi:sides="3"
           id="path4362"
           style="fill:#ffa200;fill-opacity:1;stroke:#000000;stroke-width:2;stroke-linecap:round;stroke-linejoin:round;stroke-miterlimit:4;stroke-opacity:1;stroke-dasharray:none"
           sodipodi:type="star" />
        <g
           inkscape:export-ydpi="90"
           inkscape:export-xdpi="90"
           inkscape:export-filename="/tmp/logo.png"
           transform="matrix(1.5187964,0,0,1.4918557,104.0126,-103.64668)"
           id="g4364">
          <path
             d="m 239.91123,197.01552 c 0,8.50785 -6.89697,15.40482 -15.40482,15.40482 -8.50785,0 -15.40483,-6.89697 -15.40483,-15.40482 0,-8.50785 6.89698,-15.40483 15.40483,-15.40483 8.50785,0 15.40482,6.89698 15.40482,15.40483 z"
             sodipodi:ry="15.404826"
             sodipodi:rx="15.404826"
             sodipodi:cy="197.01552"
             sodipodi:cx="224.50641"
             id="path4366"
             style="fill:#ffffff;fill-opacity:1;stroke:#000000;stroke-width:2.56033802;stroke-linecap:round;stroke-linejoin:round;stroke-miterlimit:4;stroke-opacity:1;stroke-dasharray:none"
             sodipodi:type="arc"
             transform="matrix(1.0431771,0,0,1.0431771,11.733742,-15.81225)" />
          <path
             d="m 230.81985,196.51044 c 0,1.5342 -1.24372,2.77792 -2.77792,2.77792 -1.5342,0 -2.77792,-1.24372 -2.77792,-2.77792 0,-1.53421 1.24372,-2.77792 2.77792,-2.77792 1.5342,0 2.77792,1.24371 2.77792,2.77792 z"
             sodipodi:ry="2.7779195"
             sodipodi:rx="2.7779195"
             sodipodi:cy="196.51044"
             sodipodi:cx="228.04193"
             id="path4368"
             style="fill:#000000;fill-opacity:1;stroke:#000000;stroke-width:2;stroke-linecap:round;stroke-linejoin:round;stroke-miterlimit:4;stroke-opacity:1;stroke-dasharray:none"
             sodipodi:type="arc"
             transform="matrix(1.3354429,0,0,1.3354429,-66.581532,-72.718648)" />
          <path
             transform="matrix(-1.0431771,0,0,1.0431771,448.13363,-15.81225)"
             sodipodi:type="arc"
             style="fill:#ffffff;fill-opacity:1;stroke:#000000;stroke-width:2.56033802;stroke-linecap:round;stroke-linejoin:round;stroke-miterlimit:4;stroke-opacity:1;stroke-dasharray:none"
             id="path4370"
             sodipodi:cx="224.50641"
             sodipodi:cy="197.01552"
             sodipodi:rx="15.404826"
             sodipodi:ry="15.404826"
             d="m 239.91123,197.01552 c 0,8.50785 -6.89697,15.40482 -15.40482,15.40482 -8.50785,0 -15.40483,-6.89697 -15.40483,-15.40482 0,-8.50785 6.89698,-15.40483 15.40483,-15.40483 8.50785,0 15.40482,6.89698 15.40482,15.40483 z" />
          <path
             transform="matrix(-1.3354429,0,0,1.3354429,526.4489,-72.718648)"
             sodipodi:type="arc"
             style="fill:#000000;fill-opacity:1;stroke:#000000;stroke-width:2;stroke-linecap:round;stroke-linejoin:round;stroke-miterlimit:4;stroke-opacity:1;stroke-dasharray:none"
             id="path4372"
             sodipodi:cx="228.04193"
             sodipodi:cy="196.51044"
             sodipodi:rx="2.7779195"
             sodipodi:ry="2.7779195"
             d="m 230.81985,196.51044 c 0,1.5342 -1.24372,2.77792 -2.77792,2.77792 -1.5342,0 -2.77792,-1.24372 -2.77792,-2.77792 0,-1.53421 1.24372,-2.77792 2.77792,-2.77792 1.5342,0 2.77792,1.24371 2.77792,2.77792 z" />
        </g>
      </g>
    </g>
    <g
       id="g4402"
       transform="matrix(0.11176073,0,0,0.11176073,257.12983,227.04586)"
       inkscape:export-filename="/home/madbob/projects/BusinessMap/images/icon.png"
       inkscape:export-xdpi="90"
       inkscape:export-ydpi="90">
      <path
         inkscape:export-ydpi="90"
         inkscape:export-xdpi="90"
         inkscape:export-filename="/tmp/logo.png"
         transform="matrix(7.8173747,-7.6129499,7.8173747,7.6129499,-3616.6301,-253.40451)"
         d="m 236.08527,290.0127 c 0,3.02656 -2.45351,5.48007 -5.48008,5.48007 -3.02656,0 -5.48007,-2.45351 -5.48007,-5.48007 0,-3.02657 2.45351,-5.48008 5.48007,-5.48008 3.02657,0 5.48008,2.45351 5.48008,5.48008 z"
         sodipodi:ry="5.4800777"
         sodipodi:rx="5.4800777"
         sodipodi:cy="290.0127"
         sodipodi:cx="230.60519"
         id="path4404"
         style="fill:#000000;fill-opacity:1;stroke:#000000;stroke-width:2;stroke-linecap:round;stroke-linejoin:round;stroke-miterlimit:4;stroke-opacity:1;stroke-dasharray:none"
         sodipodi:type="arc" />
      <path
         inkscape:export-ydpi="90"
         inkscape:export-xdpi="90"
         inkscape:export-filename="/tmp/logo.png"
         transform="matrix(5.4347234,0,0,5.292605,-735.19086,-1303.5626)"
         inkscape:transform-center-y="6.6703631"
         d="m 218.67278,301.77143 -2.18292,-3.78093 -2.18292,-3.78092 4.36584,0 4.36583,0 -2.18292,3.78092 z"
         inkscape:randomized="0"
         inkscape:rounded="0"
         inkscape:flatsided="false"
         sodipodi:arg2="2.6179939"
         sodipodi:arg1="1.5707963"
         sodipodi:r2="2.520618"
         sodipodi:r1="5.0412364"
         sodipodi:cy="296.73019"
         sodipodi:cx="218.67278"
         sodipodi:sides="3"
         id="path4406"
         style="fill:#000000;fill-opacity:1;stroke:#000000;stroke-width:2;stroke-linecap:round;stroke-linejoin:round;stroke-miterlimit:4;stroke-opacity:1;stroke-dasharray:none"
         sodipodi:type="star" />
      <path
         style="fill:#ffffff;fill-opacity:1;stroke:none"
         d="m 453.25,261.875 c -5.92979,0 -11.54512,1.40446 -16.5,3.90625 l 4.625,7.8125 11.875,20 11.84375,-20 4.625,-7.8125 C 464.76387,263.27946 459.17979,261.875 453.25,261.875 z"
         id="path4408"
         inkscape:connector-curvature="0" />
      <path
         style="fill:#ff0000;fill-opacity:1;stroke:none"
         d="m 453.3125,232.46875 -5.25,22.125 A 5.5958265,13.751298 0 0 1 447.875,255 l -5.25,22.0625 0,0.0312 0,0.0312 0.0312,0 5.21875,8.71875 A 5.5958265,5.4494953 0 0 1 448.0625,286 l 5.25,8.75 5.09375,-8.75 a 5.5958265,5.4494953 0 0 1 0.1875,-0.15625 l 5.21875,-8.71875 0.0312,-0.0312 0,-0.0312 -5.25,-22.0625 a 5.5958265,13.751298 0 0 1 -0.1875,-0.40625 l -5.09375,-22.125 z"
         id="path4410"
         inkscape:connector-curvature="0" />
      <g
         id="g4412"
         transform="matrix(1.0110023,0,0,1.0110023,-4.9866656,-1.6876357)">
        <path
           inkscape:export-ydpi="90"
           inkscape:export-xdpi="90"
           inkscape:export-filename="/tmp/logo.png"
           transform="matrix(2.0282659,0,0,1.9922881,11.706202,-220.89543)"
           inkscape:transform-center-y="8.5569324"
           d="m 217.68787,239.1968 -7.43917,-12.88501 -7.43917,-12.88501 14.87834,0 14.87833,-1e-5 -7.43917,12.88502 z"
           inkscape:randomized="0"
           inkscape:rounded="0"
           inkscape:flatsided="false"
           sodipodi:arg2="2.6179939"
           sodipodi:arg1="1.5707963"
           sodipodi:r2="8.5900087"
           sodipodi:r1="17.180019"
           sodipodi:cy="222.01678"
           sodipodi:cx="217.68787"
           sodipodi:sides="3"
           id="path4414"
           style="fill:#ffa200;fill-opacity:1;stroke:#000000;stroke-width:2;stroke-linecap:round;stroke-linejoin:round;stroke-miterlimit:4;stroke-opacity:1;stroke-dasharray:none"
           sodipodi:type="star" />
        <g
           inkscape:export-ydpi="90"
           inkscape:export-xdpi="90"
           inkscape:export-filename="/tmp/logo.png"
           transform="matrix(1.5187964,0,0,1.4918557,104.0126,-103.64668)"
           id="g4416">
          <path
             d="m 239.91123,197.01552 c 0,8.50785 -6.89697,15.40482 -15.40482,15.40482 -8.50785,0 -15.40483,-6.89697 -15.40483,-15.40482 0,-8.50785 6.89698,-15.40483 15.40483,-15.40483 8.50785,0 15.40482,6.89698 15.40482,15.40483 z"
             sodipodi:ry="15.404826"
             sodipodi:rx="15.404826"
             sodipodi:cy="197.01552"
             sodipodi:cx="224.50641"
             id="path4418"
             style="fill:#ffffff;fill-opacity:1;stroke:#000000;stroke-width:2.56033802;stroke-linecap:round;stroke-linejoin:round;stroke-miterlimit:4;stroke-opacity:1;stroke-dasharray:none"
             sodipodi:type="arc"
             transform="matrix(1.0431771,0,0,1.0431771,11.733742,-15.81225)" />
          <path
             d="m 230.81985,196.51044 c 0,1.5342 -1.24372,2.77792 -2.77792,2.77792 -1.5342,0 -2.77792,-1.24372 -2.77792,-2.77792 0,-1.53421 1.24372,-2.77792 2.77792,-2.77792 1.5342,0 2.77792,1.24371 2.77792,2.77792 z"
             sodipodi:ry="2.7779195"
             sodipodi:rx="2.7779195"
             sodipodi:cy="196.51044"
             sodipodi:cx="228.04193"
             id="path4420"
             style="fill:#000000;fill-opacity:1;stroke:#000000;stroke-width:2;stroke-linecap:round;stroke-linejoin:round;stroke-miterlimit:4;stroke-opacity:1;stroke-dasharray:none"
             sodipodi:type="arc"
             transform="matrix(1.3354429,0,0,1.3354429,-66.581532,-72.718648)" />
          <path
             transform="matrix(-1.0431771,0,0,1.0431771,448.13363,-15.81225)"
             sodipodi:type="arc"
             style="fill:#ffffff;fill-opacity:1;stroke:#000000;stroke-width:2.56033802;stroke-linecap:round;stroke-linejoin:round;stroke-miterlimit:4;stroke-opacity:1;stroke-dasharray:none"
             id="path4422"
             sodipodi:cx="224.50641"
             sodipodi:cy="197.01552"
             sodipodi:rx="15.404826"
             sodipodi:ry="15.404826"
             d="m 239.91123,197.01552 c 0,8.50785 -6.89697,15.40482 -15.40482,15.40482 -8.50785,0 -15.40483,-6.89697 -15.40483,-15.40482 0,-8.50785 6.89698,-15.40483 15.40483,-15.40483 8.50785,0 15.40482,6.89698 15.40482,15.40483 z" />
          <path
             transform="matrix(-1.3354429,0,0,1.3354429,526.4489,-72.718648)"
             sodipodi:type="arc"
             style="fill:#000000;fill-opacity:1;stroke:#000000;stroke-width:2;stroke-linecap:round;stroke-linejoin:round;stroke-miterlimit:4;stroke-opacity:1;stroke-dasharray:none"
             id="path4424"
             sodipodi:cx="228.04193"
             sodipodi:cy="196.51044"
             sodipodi:rx="2.7779195"
             sodipodi:ry="2.7779195"
             d="m 230.81985,196.51044 c 0,1.5342 -1.24372,2.77792 -2.77792,2.77792 -1.5342,0 -2.77792,-1.24372 -2.77792,-2.77792 0,-1.53421 1.24372,-2.77792 2.77792,-2.77792 1.5342,0 2.77792,1.24371 2.77792,2.77792 z" />
        </g>
      </g>
    </g>
    <g
       id="g4461"
       inkscape:export-filename="/home/madbob/projects/BusinessMap/images/icon_user.png"
       inkscape:export-xdpi="90"
       inkscape:export-ydpi="90">
      <path
         sodipodi:type="arc"
         style="fill:#ff0000;fill-opacity:1;stroke:#ff0000;stroke-width:2;stroke-linecap:round;stroke-linejoin:round;stroke-miterlimit:4;stroke-opacity:1;stroke-dasharray:none"
         id="path4428"
         sodipodi:cx="230.60519"
         sodipodi:cy="290.0127"
         sodipodi:rx="5.4800777"
         sodipodi:ry="5.4800777"
         d="m 236.08527,290.0127 a 5.4800777,5.4800777 0 1 1 -10.96015,0 5.4800777,5.4800777 0 1 1 10.96015,0 z"
         transform="matrix(0.8736755,-0.85082884,0.8736755,0.85082884,-119.46599,198.19486)"
         inkscape:export-filename="/tmp/logo.png"
         inkscape:export-xdpi="90"
         inkscape:export-ydpi="90" />
      <path
         sodipodi:type="star"
         style="fill:#ff0000;fill-opacity:1;stroke:#ff0000;stroke-width:2;stroke-linecap:round;stroke-linejoin:round;stroke-miterlimit:4;stroke-opacity:1;stroke-dasharray:none"
         id="path4430"
         sodipodi:sides="3"
         sodipodi:cx="218.67278"
         sodipodi:cy="296.73019"
         sodipodi:r1="5.0412364"
         sodipodi:r2="2.520618"
         sodipodi:arg1="1.5707963"
         sodipodi:arg2="2.6179939"
         inkscape:flatsided="false"
         inkscape:rounded="0"
         inkscape:randomized="0"
         d="m 218.67278,301.77143 -2.18292,-3.78093 -2.18292,-3.78092 4.36584,0 4.36583,0 -2.18292,3.78092 z"
         inkscape:transform-center-y="6.6703631"
         transform="matrix(0.60738865,0,0,0.5915054,202.56576,80.828422)"
         inkscape:export-filename="/tmp/logo.png"
         inkscape:export-xdpi="90"
         inkscape:export-ydpi="90" />
      <path
         inkscape:connector-curvature="0"
         id="path4432"
         d="m 335.38678,255.78287 c -0.66272,0 -1.29029,0.15696 -1.84405,0.43657 l 0.51689,0.87313 1.32716,2.23521 1.32367,-2.23521 0.51689,-0.87313 c -0.55376,-0.27961 -1.17784,-0.43657 -1.84056,-0.43657 z"
         style="fill:#ffffff;fill-opacity:1;stroke:none" />
      <path
         inkscape:connector-curvature="0"
         id="path4434"
         d="m 335.39377,252.49641 -0.58675,2.4727 a 0.62539365,1.5368551 0 0 1 -0.021,0.0454 l -0.58675,2.46572 0,0.003 0,0.003 0.003,0 0.58325,0.97441 a 0.62539365,0.60903957 0 0 1 0.021,0.0175 l 0.58675,0.97791 0.56928,-0.97791 a 0.62539365,0.60903957 0 0 1 0.021,-0.0175 l 0.58325,-0.97442 0.003,-0.003 0,-0.003 -0.58674,-2.46572 a 0.62539365,1.5368551 0 0 1 -0.021,-0.0454 l -0.56928,-2.4727 z"
         style="fill:#000000;fill-opacity:1;stroke:none" />
      <g
         transform="matrix(0.11299036,0,0,0.11299036,284.17392,226.32692)"
         id="g4436">
        <path
           sodipodi:type="star"
           style="fill:#ffa200;fill-opacity:1;stroke:#000000;stroke-width:2;stroke-linecap:round;stroke-linejoin:round;stroke-miterlimit:4;stroke-opacity:1;stroke-dasharray:none"
           id="path4438"
           sodipodi:sides="3"
           sodipodi:cx="217.68787"
           sodipodi:cy="222.01678"
           sodipodi:r1="17.180019"
           sodipodi:r2="8.5900087"
           sodipodi:arg1="1.5707963"
           sodipodi:arg2="2.6179939"
           inkscape:flatsided="false"
           inkscape:rounded="0"
           inkscape:randomized="0"
           d="m 217.68787,239.1968 -7.43917,-12.88501 -7.43917,-12.88501 14.87834,0 14.87833,-1e-5 -7.43917,12.88502 z"
           inkscape:transform-center-y="8.5569324"
           transform="matrix(2.0282659,0,0,1.9922881,11.706202,-220.89543)"
           inkscape:export-filename="/tmp/logo.png"
           inkscape:export-xdpi="90"
           inkscape:export-ydpi="90" />
        <g
           id="g4440"
           transform="matrix(1.5187964,0,0,1.4918557,104.0126,-103.64668)"
           inkscape:export-filename="/tmp/logo.png"
           inkscape:export-xdpi="90"
           inkscape:export-ydpi="90">
          <path
             transform="matrix(1.0431771,0,0,1.0431771,11.733742,-15.81225)"
             sodipodi:type="arc"
             style="fill:#ffffff;fill-opacity:1;stroke:#000000;stroke-width:2.56033802;stroke-linecap:round;stroke-linejoin:round;stroke-miterlimit:4;stroke-opacity:1;stroke-dasharray:none"
             id="path4442"
             sodipodi:cx="224.50641"
             sodipodi:cy="197.01552"
             sodipodi:rx="15.404826"
             sodipodi:ry="15.404826"
             d="m 239.91123,197.01552 c 0,8.50785 -6.89697,15.40482 -15.40482,15.40482 -8.50785,0 -15.40483,-6.89697 -15.40483,-15.40482 0,-8.50785 6.89698,-15.40483 15.40483,-15.40483 8.50785,0 15.40482,6.89698 15.40482,15.40483 z" />
          <path
             transform="matrix(1.3354429,0,0,1.3354429,-66.581532,-72.718648)"
             sodipodi:type="arc"
             style="fill:#000000;fill-opacity:1;stroke:#000000;stroke-width:2;stroke-linecap:round;stroke-linejoin:round;stroke-miterlimit:4;stroke-opacity:1;stroke-dasharray:none"
             id="path4444"
             sodipodi:cx="228.04193"
             sodipodi:cy="196.51044"
             sodipodi:rx="2.7779195"
             sodipodi:ry="2.7779195"
             d="m 230.81985,196.51044 c 0,1.5342 -1.24372,2.77792 -2.77792,2.77792 -1.5342,0 -2.77792,-1.24372 -2.77792,-2.77792 0,-1.53421 1.24372,-2.77792 2.77792,-2.77792 1.5342,0 2.77792,1.24371 2.77792,2.77792 z" />
          <path
             d="m 239.91123,197.01552 c 0,8.50785 -6.89697,15.40482 -15.40482,15.40482 -8.50785,0 -15.40483,-6.89697 -15.40483,-15.40482 0,-8.50785 6.89698,-15.40483 15.40483,-15.40483 8.50785,0 15.40482,6.89698 15.40482,15.40483 z"
             sodipodi:ry="15.404826"
             sodipodi:rx="15.404826"
             sodipodi:cy="197.01552"
             sodipodi:cx="224.50641"
             id="path4446"
             style="fill:#ffffff;fill-opacity:1;stroke:#000000;stroke-width:2.56033802;stroke-linecap:round;stroke-linejoin:round;stroke-miterlimit:4;stroke-opacity:1;stroke-dasharray:none"
             sodipodi:type="arc"
             transform="matrix(-1.0431771,0,0,1.0431771,448.13363,-15.81225)" />
          <path
             d="m 230.81985,196.51044 c 0,1.5342 -1.24372,2.77792 -2.77792,2.77792 -1.5342,0 -2.77792,-1.24372 -2.77792,-2.77792 0,-1.53421 1.24372,-2.77792 2.77792,-2.77792 1.5342,0 2.77792,1.24371 2.77792,2.77792 z"
             sodipodi:ry="2.7779195"
             sodipodi:rx="2.7779195"
             sodipodi:cy="196.51044"
             sodipodi:cx="228.04193"
             id="path4448"
             style="fill:#000000;fill-opacity:1;stroke:#000000;stroke-width:2;stroke-linecap:round;stroke-linejoin:round;stroke-miterlimit:4;stroke-opacity:1;stroke-dasharray:none"
             sodipodi:type="arc"
             transform="matrix(-1.3354429,0,0,1.3354429,526.4489,-72.718648)" />
        </g>
      </g>
    </g>
  </g>
</svg>
